<svg xmlns="http://www.w3.org/2000/svg" width="100" height="100" viewBox="0 0 100 100"><rect width="100" height="1" fill="#6980ec"/><rect width="100" height="1" transform="translate(0 10)" fill="#4e72e7"/><rect width="1" height="99" transform="translate(10 1)" fill="#4e72e7"/><rect width="1" height="99" transform="translate(20 1)" fill="#4e72e7"/><rect width="1" height="99" transform="translate(30 1)" fill="#4e72e7"/><rect width="1" height="99" transform="translate(40 1)" fill="#4e72e7"/><rect width="1" height="99" transform="translate(60 1)" fill="#4e72e7"/><rect width="1" height="99" transform="translate(70 1)" fill="#4e72e7"/><rect width="1" height="99" transform="translate(80 1)" fill="#4e72e7"/><rect width="1" height="99" transform="translate(90 1)" fill="#4e72e7"/><rect width="100" height="1" transform="translate(0 20)" fill="#4e72e7"/><rect width="100" height="1" transform="translate(0 30)" fill="#4e72e7"/><rect width="100" height="1" transform="translate(0 40)" fill="#4e72e7"/><rect width="100" height="1" transform="translate(0 60)" fill="#4e72e7"/><rect width="100" height="1" transform="translate(0 70)" fill="#4e72e7"/><rect width="100" height="1" transform="translate(0 80)" fill="#4e72e7"/><rect width="100" height="1" transform="translate(0 90)" fill="#4e72e7"/><rect width="100" height="1" transform="translate(0 50)" fill="#6980ec"/><rect width="1" height="99" transform="translate(0 1)" fill="#6980ec"/><rect width="1" height="99" transform="translate(50 1)" fill="#6980ec"/></svg>